<svg width="170" height="171" viewBox="0 0 170 171" fill="none" xmlns="http://www.w3.org/2000/svg">
<g id="quote 1">
<g id="Group">
<path id="Vector" d="M35.0624 102.713C31.5563 111.531 26.0314 120.244 18.6469 128.638C16.3094 131.294 15.9907 135.119 17.9031 138.094C19.3908 140.431 21.8343 141.706 24.4906 141.706C25.2344 141.706 25.9782 141.653 26.722 141.387C42.3405 136.819 78.8377 120.616 79.847 68.6593C80.2187 48.6313 65.5564 31.4189 46.4844 29.4533C35.9126 28.3907 25.3939 31.8436 17.5844 38.8562C9.77516 45.9219 5.3125 56.0158 5.3125 66.5344C5.3125 84.0656 17.7439 99.4188 35.0624 102.713Z" fill="#D5F4FF"/>
<path id="Vector_2" d="M131.272 29.4533C120.753 28.3907 110.234 31.8436 102.425 38.8562C94.6157 45.9219 90.1531 56.0158 90.1531 66.5344C90.1531 84.0656 102.584 99.4188 119.903 102.713C116.397 111.531 110.872 120.244 103.488 128.638C101.15 131.294 100.831 135.119 102.744 138.094C104.231 140.431 106.675 141.706 109.331 141.706C110.075 141.706 110.819 141.653 111.563 141.387C127.181 136.819 163.678 120.616 164.688 68.6592V67.9157C164.688 48.2062 150.185 31.4189 131.272 29.4533Z" fill="#D5F4FF"/>
</g>
</g>
</svg>
