<svg width="100" height="100" viewBox="0 0 100 100" fill="none" xmlns="http://www.w3.org/2000/svg">
<g id="zondicons:play-outline">
<circle id="Ellipse 1" cx="50" cy="50" r="45" fill="white"/>
<path id="Vector" d="M15.1118 85.1048C10.384 80.5385 6.61299 75.0765 4.01875 69.0373C1.4245 62.9981 0.0589829 56.5027 0.00186896 49.9301C-0.0552449 43.3575 1.19719 36.8394 3.68609 30.756C6.175 24.6727 9.85052 19.1459 14.4982 14.4982C19.1459 9.85052 24.6727 6.175 30.756 3.68609C36.8394 1.19719 43.3575 -0.0552449 49.9301 0.00186896C56.5027 0.0589829 62.9981 1.4245 69.0373 4.01875C75.0765 6.61299 80.5385 10.384 85.1048 15.1118C94.1216 24.4476 99.1109 36.9514 98.9981 49.9301C98.8853 62.9089 93.6795 75.3241 84.5018 84.5018C75.3241 93.6795 62.9089 98.8853 49.9301 98.9981C36.9514 99.1109 24.4476 94.1216 15.1118 85.1048ZM78.1253 78.1253C85.5558 70.6947 89.7303 60.6167 89.7303 50.1083C89.7303 39.5998 85.5558 29.5218 78.1253 22.0913C70.6947 14.6607 60.6167 10.4862 50.1083 10.4862C39.5998 10.4862 29.5218 14.6607 22.0913 22.0913C14.6607 29.5218 10.4862 39.5998 10.4862 50.1083C10.4862 60.6167 14.6607 70.6947 22.0913 78.1253C29.5218 85.5558 39.5998 89.7303 50.1083 89.7303C60.6167 89.7303 70.6947 85.5558 78.1253 78.1253ZM35.2583 30.3083L74.8583 50.1083L35.2583 69.9083V30.3083Z" fill="#50B0D2"/>
</g>
</svg>
