<svg width="31" height="30" viewBox="0 0 31 30" fill="none" xmlns="http://www.w3.org/2000/svg">
<g id="cargo-truck 1" clip-path="url(#clip0_116_178)">
<g id="Group">
<g id="Group_2">
<path id="Vector" d="M25.25 19.3999C23.8439 19.3999 22.7 20.5441 22.7 21.9499C22.7 23.356 23.8439 24.4999 25.25 24.4999C26.6557 24.4999 27.8 23.356 27.8 21.9499C27.8 20.5441 26.6557 19.3999 25.25 19.3999ZM25.25 22.6999C24.8363 22.6999 24.5 22.3636 24.5 21.9499C24.5 21.5362 24.8363 21.1999 25.25 21.1999C25.6636 21.1999 26 21.5362 26 21.9499C26 22.3636 25.6636 22.6999 25.25 22.6999Z" fill="white"/>
<path id="Vector_2" d="M25.0058 8.79993H20.6C20.2685 8.79993 20 9.06875 20 9.39993V21.0999C20 21.4311 20.2685 21.6999 20.6 21.6999H21.2363C21.5333 21.6999 21.7964 21.486 21.8348 21.1914C22.0703 19.3872 23.5094 18.2683 25.2503 18.2683C26.9912 18.2683 28.4303 19.3873 28.6658 21.1914C28.7042 21.4861 28.967 21.6999 29.2643 21.6999H29.9C30.2311 21.6999 30.5 21.4311 30.5 21.0999V15.2499C30.5 15.1089 30.4504 14.9727 30.3601 14.865L25.4659 9.01502C25.352 8.87885 25.1834 8.79993 25.0058 8.79993ZM21.2 13.5999V10.5999C21.2 10.2688 21.4685 9.99993 21.8 9.99993H24.443C24.6209 9.99993 24.7898 10.0791 24.9038 10.2159L27.4037 13.2159C27.7292 13.6068 27.4514 14.1999 26.9426 14.1999H21.8C21.4685 14.1999 21.2 13.9314 21.2 13.5999Z" fill="white"/>
<path id="Vector_3" d="M1.1 21.7002H2.63632C2.93333 21.7002 3.19642 21.4863 3.2348 21.1918C3.47029 19.3875 4.90941 18.2686 6.65029 18.2686C8.39118 18.2686 9.83029 19.3876 10.0658 21.1918C10.1042 21.4864 10.367 21.7002 10.6643 21.7002H18.2C18.5312 21.7002 18.8 21.4314 18.8 21.1002V6.10024C18.8 5.76907 18.5312 5.50024 18.2 5.50024H1.1C0.76848 5.50024 0.5 5.76907 0.5 6.10024V21.1002C0.5 21.4315 0.76848 21.7002 1.1 21.7002Z" fill="white"/>
<path id="Vector_4" d="M6.6501 19.3999C5.24402 19.3999 4.1001 20.5441 4.1001 21.9499C4.1001 23.356 5.24402 24.4999 6.6501 24.4999C8.05588 24.4999 9.2001 23.356 9.2001 21.9499C9.2001 20.5441 8.05588 19.3999 6.6501 19.3999ZM6.6501 22.6999C6.23642 22.6999 5.9001 22.3636 5.9001 21.9499C5.9001 21.5362 6.23642 21.1999 6.6501 21.1999C7.06377 21.1999 7.4001 21.5362 7.4001 21.9499C7.4001 22.3636 7.06377 22.6999 6.6501 22.6999Z" fill="white"/>
</g>
</g>
</g>
<defs>
<clipPath id="clip0_116_178">
<rect width="30" height="30" fill="white" transform="translate(0.5)"/>
</clipPath>
</defs>
</svg>
