<svg width="30" height="30" viewBox="0 0 30 30" fill="none" xmlns="http://www.w3.org/2000/svg">
<g id="grocery-store" clip-path="url(#clip0_116_147)">
<path id="Vector" d="M1.25 1.25C0.559644 1.25 0 1.80964 0 2.5C0 3.19036 0.559644 3.75 1.25 3.75H3.47412C3.65612 3.75 3.8335 3.80727 3.98114 3.91368C4.12878 4.0201 4.23919 4.17028 4.29673 4.34294L8.41797 16.709C8.60098 17.258 8.62425 17.8492 8.48389 18.4106L8.14453 19.7705C7.6466 21.7622 9.19698 23.75 11.25 23.75H26.25C26.9404 23.75 27.5 23.1904 27.5 22.5C27.5 21.8096 26.9404 21.25 26.25 21.25H11.25C10.7633 21.25 10.4508 20.8506 10.5688 20.3784L10.8248 19.3563C10.8681 19.1831 10.9681 19.0294 11.1089 18.9195C11.2496 18.8097 11.423 18.75 11.6016 18.75H25C25.5382 18.7503 26.0162 18.4061 26.1865 17.8955L29.519 7.89551C29.789 7.08577 29.1861 6.24961 28.3325 6.25H8.19336C8.01136 6.25 7.83398 6.19274 7.68633 6.08632C7.53869 5.97991 7.42827 5.82973 7.37072 5.65707L6.18652 2.10449C6.01619 1.59394 5.53821 1.24972 5 1.25H1.25ZM10 25C8.61929 25 7.5 26.1193 7.5 27.5C7.5 28.8807 8.61929 30 10 30C11.3807 30 12.5 28.8807 12.5 27.5C12.5 26.1193 11.3807 25 10 25ZM25 25C23.6193 25 22.5 26.1193 22.5 27.5C22.5 28.8807 23.6193 30 25 30C26.3807 30 27.5 28.8807 27.5 27.5C27.5 26.1193 26.3807 25 25 25Z" fill="#20201F"/>
</g>
<defs>
<clipPath id="clip0_116_147">
<rect width="30" height="30" fill="white"/>
</clipPath>
</defs>
</svg>
