<svg width="23" height="23" viewBox="0 0 23 23" fill="none" xmlns="http://www.w3.org/2000/svg">
<circle cx="11" cy="11" r="11" transform="matrix(-1 0 0 1 22.5 0.214355)" fill="#50B0D2"/>
<g clip-path="url(#clip0_2288_5060)">
<rect width="11" height="11" transform="matrix(-1 0 0 1 17 5.71436)" fill="#50B0D2"/>
<path d="M6.6263 11.9451C6.54466 12.1461 6.64139 12.3752 6.84237 12.4568L7.93398 12.9008L6.9237 13.5078C6.73527 13.6154 6.66979 13.8554 6.77736 14.0438C6.88497 14.2322 7.12492 14.2977 7.31334 14.1902C7.31841 14.1872 7.3234 14.1842 7.32836 14.1811L8.33857 13.5741L8.21803 14.7468C8.19935 14.963 8.35944 15.1533 8.57562 15.172C8.7869 15.1903 8.97453 15.0376 8.99955 14.827L9.18027 13.0684L11.1108 11.9086V14.1608L9.69651 15.2215C9.52294 15.3517 9.48776 15.5979 9.61795 15.7715C9.74814 15.9451 9.99439 15.9802 10.168 15.85L11.1108 15.1429V16.3215C11.1108 16.5385 11.2867 16.7144 11.5037 16.7144C11.7207 16.7144 11.8966 16.5385 11.8966 16.3215V15.1429L12.8394 15.85C13.013 15.9802 13.2593 15.9451 13.3894 15.7715C13.5196 15.5979 13.4845 15.3517 13.3109 15.2215L11.8966 14.1608V11.9086L13.827 13.0686L14.0077 14.8273C14.0264 15.0434 14.2167 15.2035 14.4329 15.1849C14.6491 15.1662 14.8092 14.9758 14.7905 14.7596C14.7901 14.7555 14.7897 14.7512 14.7892 14.7471L14.6687 13.5744L15.6789 14.1814C15.8623 14.2973 16.1049 14.2425 16.2208 14.0591C16.3367 13.8757 16.282 13.633 16.0985 13.5171C16.0936 13.514 16.0886 13.511 16.0835 13.5081L15.0733 12.9011L16.1649 12.4571C16.3645 12.3722 16.4576 12.1415 16.3727 11.9419C16.2897 11.7467 16.0668 11.6526 15.8691 11.7293L14.2314 12.3952L12.2664 11.2143L14.2316 10.0335L15.8692 10.6997C16.0715 10.7782 16.2991 10.6778 16.3776 10.4755C16.4543 10.2778 16.3602 10.0548 16.165 9.97184L15.0734 9.5279L16.0836 8.92071C16.2721 8.8131 16.3375 8.57315 16.23 8.38476C16.1224 8.19634 15.8824 8.13085 15.694 8.23842C15.689 8.24133 15.684 8.24434 15.679 8.24746L14.6688 8.85444L14.7893 7.68177C14.8115 7.46594 14.6545 7.273 14.4386 7.25086C14.2228 7.22873 14.0299 7.38574 14.0077 7.60157L13.827 9.36021L11.8965 10.5201V8.26792L13.3108 7.20721C13.4844 7.07709 13.5197 6.83087 13.3896 6.65723C13.2595 6.48359 13.0132 6.44831 12.8396 6.57843C12.8395 6.5785 12.8394 6.57857 12.8393 6.57864L11.8965 7.28576V6.10722C11.8965 5.89026 11.7206 5.71436 11.5036 5.71436C11.2867 5.71436 11.1108 5.89026 11.1108 6.10722V7.2858L10.1679 6.57867C9.99432 6.44848 9.74808 6.48365 9.61789 6.65723C9.4877 6.8308 9.52287 7.07705 9.69644 7.20724L11.1107 8.26795V10.5201L9.18027 9.36007L8.99955 7.60144C8.97395 7.38598 8.77851 7.23208 8.56306 7.25767C8.35246 7.28269 8.19976 7.47032 8.21803 7.6816L8.33857 8.85427L7.32836 8.24728C7.14494 8.1314 6.90228 8.18614 6.78639 8.3696C6.6705 8.55303 6.72528 8.79569 6.90871 8.91158C6.91364 8.91469 6.91863 8.9177 6.92373 8.92061L7.93404 9.52766L6.84244 9.9716C6.64276 10.0565 6.54969 10.2872 6.63458 10.4869C6.71755 10.682 6.9405 10.7761 7.13823 10.6994L8.77588 10.0335L10.7409 11.2144L8.77571 12.3952L7.13806 11.7292C6.93742 11.6474 6.70842 11.7437 6.62661 11.9444C6.6265 11.9446 6.6264 11.9448 6.6263 11.9451Z" fill="white"/>
</g>
<defs>
<clipPath id="clip0_2288_5060">
<rect width="11" height="11" fill="white" transform="matrix(-1 0 0 1 17 5.71436)"/>
</clipPath>
</defs>
</svg>
