<svg width="27" height="27" viewBox="0 0 27 27" fill="none" xmlns="http://www.w3.org/2000/svg">
<g id="Property 1=Frame 2253">
<rect id="Rectangle 59" width="27" height="27" rx="3" fill="#50B0D2"/>
<path id="Vector" d="M19.1429 13.8571H14.8571V18.1429C14.8571 18.3702 14.7668 18.5882 14.6061 18.7489C14.4453 18.9097 14.2273 19 14 19C13.7727 19 13.5547 18.9097 13.3939 18.7489C13.2332 18.5882 13.1429 18.3702 13.1429 18.1429V13.8571H8.85714C8.62981 13.8571 8.4118 13.7668 8.25105 13.6061C8.09031 13.4453 8 13.2273 8 13C8 12.7727 8.09031 12.5547 8.25105 12.3939C8.4118 12.2332 8.62981 12.1429 8.85714 12.1429H13.1429V7.85714C13.1429 7.62981 13.2332 7.4118 13.3939 7.25105C13.5547 7.09031 13.7727 7 14 7C14.2273 7 14.4453 7.09031 14.6061 7.25105C14.7668 7.4118 14.8571 7.62981 14.8571 7.85714V12.1429H19.1429C19.3702 12.1429 19.5882 12.2332 19.7489 12.3939C19.9097 12.5547 20 12.7727 20 13C20 13.2273 19.9097 13.4453 19.7489 13.6061C19.5882 13.7668 19.3702 13.8571 19.1429 13.8571Z" fill="white"/>
</g>
</svg>
