<svg width="28" height="28" viewBox="0 0 28 28" fill="none" xmlns="http://www.w3.org/2000/svg">
<g id="Component 38">
<rect id="Rectangle 59" x="0.5" y="0.214355" width="27" height="27" rx="3" fill="#20201F" fill-opacity="0.15"/>
<path id="Vector" d="M19.6429 14.0715H15.3571V18.3572C15.3571 18.5845 15.2668 18.8026 15.1061 18.9633C14.9453 19.1241 14.7273 19.2144 14.5 19.2144C14.2727 19.2144 14.0547 19.1241 13.8939 18.9633C13.7332 18.8026 13.6429 18.5845 13.6429 18.3572V14.0715H9.35714C9.12981 14.0715 8.9118 13.9812 8.75105 13.8204C8.59031 13.6597 8.5 13.4417 8.5 13.2144C8.5 12.987 8.59031 12.769 8.75105 12.6083C8.9118 12.4475 9.12981 12.3572 9.35714 12.3572H13.6429V8.0715C13.6429 7.84417 13.7332 7.62615 13.8939 7.46541C14.0547 7.30466 14.2727 7.21436 14.5 7.21436C14.7273 7.21436 14.9453 7.30466 15.1061 7.46541C15.2668 7.62615 15.3571 7.84417 15.3571 8.0715V12.3572H19.6429C19.8702 12.3572 20.0882 12.4475 20.2489 12.6083C20.4097 12.769 20.5 12.987 20.5 13.2144C20.5 13.4417 20.4097 13.6597 20.2489 13.8204C20.0882 13.9812 19.8702 14.0715 19.6429 14.0715Z" fill="#20201F"/>
</g>
</svg>
